<?xml version="1.0" encoding="UTF-8" standalone="no"?>
<!-- Created with Inkscape (http://www.inkscape.org/) -->

<svg
   version="1.1"
   id="svg1"
   width="256"
   height="256"
   viewBox="0 0 256 256"
   sodipodi:docname="delete-symbolic.svg"
   inkscape:export-filename="delete-symbolic.svg"
   inkscape:export-xdpi="640"
   inkscape:export-ydpi="640"
   inkscape:version="1.3.2 (091e20ef0f, 2023-11-25, custom)"
   xmlns:inkscape="http://www.inkscape.org/namespaces/inkscape"
   xmlns:sodipodi="http://sodipodi.sourceforge.net/DTD/sodipodi-0.dtd"
   xmlns="http://www.w3.org/2000/svg"
   xmlns:svg="http://www.w3.org/2000/svg">
  <defs
     id="defs1">
    <inkscape:path-effect
       effect="fillet_chamfer"
       id="path-effect4"
       is_visible="true"
       lpeversion="1"
       nodesatellites_param="F,0,0,1,0,27,0,1 @ F,0,0,1,0,27,0,1 @ F,0,0,1,0,27,0,1 @ F,0,0,1,0,27,0,1 @ F,0,0,1,0,27,0,1"
       radius="27"
       unit="px"
       method="auto"
       mode="F"
       chamfer_steps="1"
       flexible="false"
       use_knot_distance="true"
       apply_no_radius="true"
       apply_with_radius="true"
       only_selected="false"
       hide_knots="false" />
    <inkscape:path-effect
       effect="fillet_chamfer"
       id="path-effect2"
       is_visible="true"
       lpeversion="1"
       nodesatellites_param="F,0,0,1,0,27,0,1 @ F,0,0,1,0,27,0,1 @ F,0,0,1,0,27,0,1 @ F,0,0,1,0,27,0,1 @ F,0,0,1,0,27,0,1"
       radius="27"
       unit="px"
       method="auto"
       mode="F"
       chamfer_steps="1"
       flexible="false"
       use_knot_distance="true"
       apply_no_radius="true"
       apply_with_radius="true"
       only_selected="false"
       hide_knots="false" />
    <inkscape:path-effect
       effect="fillet_chamfer"
       id="path-effect1"
       is_visible="true"
       lpeversion="1"
       nodesatellites_param="F,0,0,1,0,4.085574,0,1 @ F,0,0,1,0,3.6370039,0,1 @ F,0,0,1,0,3.4079808,0,1 @ F,0,0,1,0,4.2471442,0,1 @ F,0,1,1,0,5.3818551,0,1"
       radius="0"
       unit="px"
       method="auto"
       mode="F"
       chamfer_steps="1"
       flexible="false"
       use_knot_distance="true"
       apply_no_radius="true"
       apply_with_radius="true"
       only_selected="false"
       hide_knots="false" />
  </defs>
  <sodipodi:namedview
     id="namedview1"
     pagecolor="#818181"
     bordercolor="#000000"
     borderopacity="0.25"
     inkscape:showpageshadow="true"
     inkscape:pageopacity="0.0"
     inkscape:pagecheckerboard="0"
     inkscape:deskcolor="#d1d1d1"
     showgrid="true"
     showborder="false"
     borderlayer="true"
     showguides="false"
     inkscape:zoom="2"
     inkscape:cx="60.75"
     inkscape:cy="112.75"
     inkscape:window-width="1908"
     inkscape:window-height="1037"
     inkscape:window-x="5"
     inkscape:window-y="36"
     inkscape:window-maximized="0"
     inkscape:current-layer="g1">
    <inkscape:grid
       id="grid1"
       units="px"
       originx="0"
       originy="0"
       spacingx="1"
       spacingy="1"
       empcolor="#0099e5"
       empopacity="0.30196078"
       color="#0099e5"
       opacity="0.14901961"
       empspacing="5"
       dotted="false"
       gridanglex="30"
       gridanglez="30"
       visible="true" />
  </sodipodi:namedview>
  <g
     inkscape:groupmode="layer"
     inkscape:label="Image"
     id="g1">
    <path
       id="rect1"
       style="stroke:none;stroke-width:4.99988;stroke-linecap:round;stroke-linejoin:round;paint-order:fill markers stroke"
       d="M 154.99968 0.001953125 A 67.962225 67.962225 0 0 0 108.35844 18.527344 L 19.640883 102.21289 A 26.955284 26.955284 0 0 0 18.559417 140.34961 L 109.4399 236.37695 A 62.73666 62.73666 0 0 0 154.99968 255.99023 L 229.00071 255.99805 A 26.997226 26.997226 0 0 0 256 229 L 256 27.013672 A 27.002781 27.002781 0 0 0 229.00071 0.009765625 L 154.99968 0.001953125 z M 154.9175 17.564453 L 215.93907 17.572266 C 230.87793 17.573804 243.09338 29.789904 243.09338 44.728516 L 243.09338 211.2832 C 243.09338 226.22143 230.87755 238.43693 215.93907 238.43555 L 154.9175 238.42773 C 139.3638 238.42613 124.49064 232.02301 113.79938 220.72656 L 38.85698 141.54492 C 28.5906 130.69741 29.081207 113.42594 39.945917 103.17773 L 113.10456 34.171875 C 124.41277 23.505336 139.37224 17.562853 154.9175 17.564453 z M 154.9175 27.34375 C 141.86435 27.342406 129.30912 32.330548 119.81375 41.287109 L 46.655114 110.29297 C 39.639149 116.91082 39.330697 127.8174 45.960287 134.82227 L 120.90269 214.00391 C 129.75026 223.3523 142.04602 228.64679 154.9175 228.64844 L 215.93907 228.65625 C 225.59211 228.65724 233.3135 220.93608 233.3135 211.2832 L 233.3135 44.728516 C 233.3135 35.074542 225.59321 27.35256 215.93907 27.351562 L 154.9175 27.34375 z M 130.36692 65.001953 L 133.80183 65.001953 A 9.8008447 9.759499 0 0 1 141.89508 69.257812 L 167.3198 106.31641 L 192.5428 69.283203 A 9.8008447 9.759499 0 0 1 200.65099 65.001953 L 203.85429 65.001953 A 9.8008447 9.759499 0 0 1 211.85789 80.388672 L 181.29107 123.49414 L 213.91996 169.14844 A 9.8008447 9.759499 0 0 1 205.93691 184.56641 L 202.5711 184.56641 A 9.8008447 9.759499 0 0 1 194.47785 180.30664 L 167.31233 140.6582 L 139.73962 180.35742 A 9.8008447 9.759499 0 0 1 131.67999 184.56641 L 128.45614 184.56641 A 9.8008447 9.759499 0 0 1 120.45815 169.16797 L 152.93201 123.49609 L 122.36146 80.388672 A 9.8008447 9.759499 0 0 1 130.36692 65.001953 z "
       transform="matrix(1.0456728,0,0,1,-11.692234,0)" />
  </g>
</svg>
