<?xml version="1.0" encoding="UTF-8" standalone="no"?>
<!-- Created with Inkscape (http://www.inkscape.org/) -->

<svg
   width="256"
   height="256"
   viewBox="0 0 256 256"
   version="1.1"
   id="svg1"
   inkscape:version="1.3.2 (091e20ef0f, 2023-11-25, custom)"
   sodipodi:docname="format-text-italic-symbolic.svg"
   xmlns:inkscape="http://www.inkscape.org/namespaces/inkscape"
   xmlns:sodipodi="http://sodipodi.sourceforge.net/DTD/sodipodi-0.dtd"
   xmlns="http://www.w3.org/2000/svg"
   xmlns:svg="http://www.w3.org/2000/svg">
  <sodipodi:namedview
     id="namedview1"
     pagecolor="#7f7f7f"
     bordercolor="#000000"
     borderopacity="0.25"
     inkscape:showpageshadow="2"
     inkscape:pageopacity="0.0"
     inkscape:pagecheckerboard="0"
     inkscape:deskcolor="#d1d1d1"
     inkscape:document-units="mm"
     inkscape:zoom="1.2243954"
     inkscape:cx="-0.81672961"
     inkscape:cy="143.74441"
     inkscape:window-width="1920"
     inkscape:window-height="1080"
     inkscape:window-x="0"
     inkscape:window-y="0"
     inkscape:window-maximized="0"
     inkscape:current-layer="layer1" />
  <defs
     id="defs1">
    <inkscape:path-effect
       effect="fillet_chamfer"
       id="path-effect1"
       is_visible="true"
       lpeversion="1"
       nodesatellites_param="F,0,0,1,0,7.9375,0,1 @ F,0,0,1,0,7.9375,0,1 @ F,0,0,1,0,7.9375,0,1 @ F,0,0,1,0,7.9375,0,1 @ F,0,0,1,0,7.9375,0,1 @ F,0,0,1,0,7.9375,0,1 @ F,0,0,1,0,7.9375,0,1 @ F,0,0,1,0,7.9375,0,1 @ F,0,0,1,0,7.9375,0,1 @ F,0,0,1,0,7.9375,0,1 @ F,0,0,1,0,7.9375,0,1 @ F,0,0,1,0,7.9375,0,1"
       radius="30"
       unit="px"
       method="auto"
       mode="F"
       chamfer_steps="1"
       flexible="false"
       use_knot_distance="true"
       apply_no_radius="true"
       apply_with_radius="true"
       only_selected="false"
       hide_knots="false" />
  </defs>
  <g
     inkscape:label="Layer 1"
     inkscape:groupmode="layer"
     id="layer1">
    <path
       d="M 206.72867,257.70096 H 128.8702 a 7.9375,7.9375 45 0 1 -7.9375,-7.9375 l 0,-3.01702 a 9.9334027,9.9334027 128.62736 0 1 7.74192,-9.68865 l 15.03404,-3.40055 a 9.9334027,9.9334027 128.62736 0 0 7.74192,-9.68865 V 32.394713 a 10.049265,10.049265 51.696247 0 0 -7.72165,-9.775987 L 128.65435,19.02954 A 10.049265,10.049265 51.696247 0 1 120.9327,9.253553 V 6.2365363 a 7.9375,7.9375 135 0 1 7.9375,-7.9375 h 77.85847 a 7.9375,7.9375 45 0 1 7.9375,7.9375 V 9.253553 a 10.049266,10.049266 128.30375 0 1 -7.72165,9.775988 l -15.07457,3.589184 a 10.049266,10.049266 128.30375 0 0 -7.72165,9.775988 V 223.96859 a 9.9334034,9.9334034 51.372643 0 0 7.74192,9.68865 l 15.03403,3.40055 a 9.9334034,9.9334034 51.372643 0 1 7.74192,9.68865 l 0,3.01702 a 7.9375,7.9375 135 0 1 -7.9375,7.9375 z"
       id="text1"
       style="stroke-width:10;stroke-linecap:round;stroke-linejoin:round;stroke-miterlimit:0;stroke-opacity:0.999924;paint-order:stroke markers fill"
       transform="skewX(-14.706481)"
       aria-label="I"
       inkscape:path-effect="#path-effect1"
       inkscape:original-d="M 214.66617,257.70096 H 120.9327 v -18.89202 l 30.51788,-6.90285 V 24.457213 L 120.9327,17.191053 V -1.7009637 h 93.73347 V 17.191053 l -30.51787,7.26616 V 231.90609 l 30.51787,6.90285 z" />
  </g>
</svg>
