<?xml version="1.0" encoding="UTF-8" standalone="no"?>
<!-- Created with Inkscape (http://www.inkscape.org/) -->

<svg
   width="256"
   height="256"
   viewBox="0 0 256 256"
   version="1.1"
   id="svg1"
   inkscape:version="1.3.2 (091e20ef0f, 2023-11-25, custom)"
   sodipodi:docname="format-text-bold-symbolic.svg"
   xmlns:inkscape="http://www.inkscape.org/namespaces/inkscape"
   xmlns:sodipodi="http://sodipodi.sourceforge.net/DTD/sodipodi-0.dtd"
   xmlns="http://www.w3.org/2000/svg"
   xmlns:svg="http://www.w3.org/2000/svg">
  <sodipodi:namedview
     id="namedview1"
     pagecolor="#7f7f7f"
     bordercolor="#000000"
     borderopacity="0.25"
     inkscape:showpageshadow="2"
     inkscape:pageopacity="0.0"
     inkscape:pagecheckerboard="0"
     inkscape:deskcolor="#d1d1d1"
     inkscape:document-units="mm"
     inkscape:zoom="2.0913616"
     inkscape:cx="110.69344"
     inkscape:cy="140.10012"
     inkscape:window-width="1920"
     inkscape:window-height="1080"
     inkscape:window-x="0"
     inkscape:window-y="0"
     inkscape:window-maximized="0"
     inkscape:current-layer="layer1" />
  <defs
     id="defs1">
    <inkscape:path-effect
       effect="fillet_chamfer"
       id="path-effect5"
       is_visible="true"
       lpeversion="1"
       nodesatellites_param="F,0,0,1,0,7.9375,0,1 @ F,0,0,1,0,7.9375,0,1 @ F,0,0,1,0,7.9375,0,1 @ F,0,0,1,0,7.9375,0,1 @ F,0,0,1,0,7.9375,0,1 @ F,0,0,1,0,7.9375,0,1 @ F,0,0,1,0,7.9375,0,1 @ F,0,0,1,0,7.9375,0,1 @ F,0,0,1,0,7.9375,0,1 @ F,0,0,1,0,7.9375,0,1 @ F,0,0,1,0,7.9375,0,1 @ F,0,0,1,0,7.9375,0,1 @ F,0,0,1,0,7.9375,0,1 @ F,0,0,1,0,7.9375,0,1 @ F,0,0,1,0,7.9375,0,1 | F,0,0,1,0,7.9375,0,1 @ F,0,0,1,0,7.9375,0,1 @ F,0,0,1,0,7.9375,0,1 @ F,0,0,1,0,7.9375,0,1 @ F,0,0,1,0,7.9375,0,1 @ F,0,0,1,0,7.9375,0,1 @ F,0,0,1,0,7.9375,0,1 @ F,0,0,1,0,7.9375,0,1 @ F,0,0,1,0,7.9375,0,1 @ F,0,0,1,0,7.9375,0,1 @ F,0,0,1,0,7.9375,0,1 @ F,0,0,1,0,7.9375,0,1 @ F,0,0,1,0,7.9375,0,1 @ F,0,0,1,0,7.9375,0,1 @ F,0,0,1,0,7.9375,0,1 @ F,0,0,1,0,7.9375,0,1 @ F,0,0,1,0,7.9375,0,1 @ F,0,0,1,0,7.9375,0,1 @ F,0,0,1,0,7.9375,0,1 @ F,0,0,1,0,7.9375,0,1 @ F,0,0,1,0,7.9375,0,1 @ F,0,0,1,0,7.9375,0,1 @ F,0,0,1,0,7.9375,0,1 @ F,0,0,1,0,7.9375,0,1 @ F,0,0,1,0,7.9375,0,1 @ F,0,0,1,0,7.9375,0,1 @ F,0,0,1,0,7.9375,0,1 @ F,0,0,1,0,7.9375,0,1 @ F,0,0,1,0,7.9375,0,1 @ F,0,0,1,0,7.9375,0,1 @ F,0,0,1,0,7.9375,0,1 @ F,0,0,1,0,7.9375,0,1 @ F,0,0,1,0,7.9375,0,1 @ F,0,0,1,0,7.9375,0,1 @ F,0,0,1,0,7.9375,0,1 @ F,0,0,1,0,7.9375,0,1 @ F,0,0,1,0,7.9375,0,1 | F,0,0,1,0,7.9375,0,1 @ F,0,0,1,0,7.9375,0,1 @ F,0,0,1,0,7.9375,0,1 @ F,0,0,1,0,7.9375,0,1 @ F,0,0,1,0,7.9375,0,1 @ F,0,0,1,0,7.9375,0,1 @ F,0,0,1,0,7.9375,0,1 @ F,0,0,1,0,7.9375,0,1 | F,0,0,1,0,7.9375,0,1 @ F,0,0,1,0,7.9375,0,1 @ F,0,0,1,0,7.9375,0,1 @ F,0,0,1,0,7.9375,0,1 @ F,0,0,1,0,7.9375,0,1 @ F,0,0,1,0,7.9375,0,1 @ F,0,0,1,0,7.9375,0,1 @ F,0,0,1,0,7.9375,0,1"
       radius="30"
       unit="px"
       method="auto"
       mode="F"
       chamfer_steps="1"
       flexible="false"
       use_knot_distance="true"
       apply_no_radius="true"
       apply_with_radius="true"
       only_selected="false"
       hide_knots="false" />
    <inkscape:path-effect
       effect="fillet_chamfer"
       id="path-effect4"
       is_visible="true"
       lpeversion="1"
       nodesatellites_param="F,0,0,1,0,0,0,1 @ F,0,0,1,0,0,0,1 @ F,0,0,1,0,0,0,1 @ F,0,0,1,0,0,0,1 @ F,0,0,1,0,0,0,1 @ F,0,0,1,0,0,0,1 @ F,0,0,1,0,0,0,1 @ F,0,0,1,0,0,0,1 @ F,0,0,1,0,0,0,1 @ F,0,0,1,0,0,0,1 @ F,0,0,1,0,0,0,1 @ F,0,0,1,0,0,0,1 @ F,0,0,1,0,0,0,1 | F,0,0,1,0,0,0,1 @ F,0,0,1,0,0,0,1 @ F,0,0,1,0,0,0,1 @ F,0,0,1,0,0,0,1 @ F,0,0,1,0,0,0,1 @ F,0,0,1,0,0,0,1 @ F,0,0,1,0,0,0,1 | F,0,0,1,0,0,0,1 @ F,0,0,1,0,0,0,1 @ F,0,0,1,0,0,0,1 @ F,0,0,1,0,0,0,1 @ F,0,0,1,0,0,0,1 @ F,0,0,1,0,0,0,1 @ F,0,0,1,0,0,0,1"
       radius="0"
       unit="px"
       method="auto"
       mode="F"
       chamfer_steps="1"
       flexible="false"
       use_knot_distance="true"
       apply_no_radius="true"
       apply_with_radius="true"
       only_selected="false"
       hide_knots="false" />
    <inkscape:path-effect
       effect="fillet_chamfer"
       id="path-effect3"
       is_visible="true"
       lpeversion="1"
       nodesatellites_param=""
       radius="0"
       unit="px"
       method="auto"
       mode="F"
       chamfer_steps="1"
       flexible="false"
       use_knot_distance="true"
       apply_no_radius="true"
       apply_with_radius="true"
       only_selected="false"
       hide_knots="false" />
  </defs>
  <g
     inkscape:label="Layer 1"
     inkscape:groupmode="layer"
     id="layer1">
    <g
       id="g5">
      <g
         id="text1"
         transform="scale(0.99896932,1.0010317)">
        <path
           style="color:#000000;display:inline;fill:#000000;stroke-linecap:round;stroke-linejoin:round;stroke-miterlimit:0;-inkscape-stroke:none;paint-order:stroke markers fill"
           d="M 38.65033,2.976178 C 35.715656,5.9594923 35.779297,13.542021 35.779297,17.925781 V 237.72461 c 0,4.38376 -0.05546,12.07268 2.987897,15.06647 2.983314,2.93467 10.565843,2.87103 14.949603,2.87103 l 66.972653,0 c 4.38376,0 11.49382,0.0238 15.87196,-0.18945 20.12964,-0.98038 37.52505,-5.78412 51.58835,-14.84074 3.68397,-2.37244 9.26994,-6.80856 12.36043,-9.91402 11.47075,-11.52631 18.10606,-26.71848 19.63414,-44.13211 0.38309,-4.36558 0.38617,-11.48859 0.0334,-15.85694 -0.59145,-7.32272 -2.04957,-14.06999 -4.5177,-20.15234 -1.64667,-4.058 -5.3204,-10.19436 -8.07207,-13.60242 -3.38048,-4.18687 -7.33101,-7.86155 -11.76851,-10.95676 -3.59283,-2.50603 -8.18184,-4.73387 -9.88385,-5.54467 6.63613,-4.87869 6.86823,-5.07752 7.09859,-5.27819 3.30248,-2.87682 5.61746,-5.67193 5.65925,-5.72177 9.51566,-14.313818 12.45144,-23.356511 13.46741,-33.13687 0.45275,-4.358351 0.44889,-11.486913 0.0399,-15.849947 -1.62719,-17.357091 -8.69545,-31.942266 -20.85782,-41.545344 -3.43722,-2.71394 -9.64126,-6.251431 -13.62595,-8.074401 C 162.79046,4.0373905 143.94501,0.69966398 121.04988,0.09112778 116.6678,-0.0253448 109.55954,-0.01171875 105.17578,-0.01171875 H 53.716797 c -4.38376,0 -12.072684,-0.0554601 -15.066467,2.98789675 z m 25.066467,17.012103 h 41.458983 c 4.38376,0 11.4923,-0.0155 15.87376,0.120765 19.80323,0.6159 35.3571,3.559983 46.55548,8.196673 4.04704,1.675681 7.18065,3.545978 7.26412,3.592721 12.68877,10.110354 16.23423,17.64526 17.32738,28.587974 0.43558,4.360254 0.45127,11.500454 -0.13875,15.840965 -0.70132,5.159303 -2.12892,9.671553 -4.27181,13.717631 -2.04808,3.867069 -6.71874,9.358003 -10.25658,11.92958 -0.61238,0.44512 -1.24425,0.8758 -1.89567,1.29238 -3.68866,2.35886 -4.40945,1.19775 -1.94033,-2.4157 4.14439,-6.065163 6.68947,-13.300001 7.68821,-21.220953 0.54804,-4.346474 0.55727,-11.49673 -0.1143,-15.824367 -1.43585,-9.252717 -5.42891,-17.503827 -11.75966,-23.550231 -3.16361,-3.021515 -9.30604,-6.74345 -13.33421,-8.461303 -9.17639,-3.913363 -20.37759,-5.760185 -33.80398,-6.251791 -4.38058,-0.160395 -11.48959,-0.138328 -15.87335,-0.138328 H 83.421875 c -4.38376,0 -12.072684,-0.05546 -15.066467,2.987897 -2.934674,2.983314 -2.871033,10.565843 -2.871033,14.949603 v 59.052733 c 0,4.38376 -0.05546,12.07268 2.987897,15.06647 2.983314,2.93467 10.565843,2.87103 14.949603,2.87103 l 27.695315,0 c 4.38376,0 11.49307,0.0252 15.87308,-0.14884 5.03919,-0.20025 9.72936,-0.61137 14.08694,-1.28619 4.33031,-0.6706 6.92671,-0.21399 6.59662,1.66745 v 1.65039 c 2.11914,5.73438 2.11914,5.73438 2.11914,5.73438 -11.98142,-2.10376 -16.4333,-2.49826 -21.15264,-2.69955 -4.37945,-0.1868 -11.48899,-0.16178 -15.87275,-0.16178 l -29.345705,0 c -4.38376,0 -12.072684,-0.0555 -15.066467,2.9879 -2.934674,2.98331 -2.871033,10.56584 -2.871033,14.9496 v 69.61328 c 0,4.38376 -0.05546,12.07268 2.987897,15.06647 2.983314,2.93467 10.565843,2.87103 14.949603,2.87103 h 31.656255 c 4.38376,0 11.49393,0.0285 15.87207,-0.18474 14.89005,-0.72516 27.22239,-3.65093 36.57889,-9.92966 3.63436,-2.43887 8.70515,-7.5126 11.26323,-11.06671 5.20567,-7.23258 8.39409,-15.80109 9.53278,-25.12894 0.53087,-4.34878 0.53914,-11.4948 -0.095,-15.82856 -1.28235,-8.7636 -4.71605,-16.82052 -10.12691,-23.50893 -2.75382,-3.40403 -8.14338,-8.12999 -11.88252,-10.40485 -0.30433,-0.18515 2.89965,0.56012 6.98378,2.14782 3.69618,1.43689 6.58218,2.99207 6.63734,3.01982 8.00101,5.34595 9.23877,6.49311 10.39196,7.72925 2.98484,3.19955 6.62643,9.42094 7.92399,13.59735 0.88664,2.8538 1.5443,6.08383 1.93053,9.71639 0.46327,4.35715 0.45759,11.4889 0.0212,15.84906 -1.18081,11.79845 -5.15029,20.91461 -12.10054,28.3815 -5.89953,5.40611 -5.89953,5.40611 -5.89953,5.40611 -16.61741,10.56111 -29.46916,14.19431 -45.54875,15.07891 -4.37659,0.24077 -11.48741,0.21211 -15.87117,0.21211 H 63.716797 a 7.9375,7.9375 45 0 1 -7.9375,-7.9375 V 27.925781 a 7.9375,7.9375 135 0 1 7.9375,-7.9375 z m 29.705078,25.416016 h 13.074215 c 4.38376,0 11.49395,-0.02651 15.87193,0.189795 9.66081,0.477316 17.37769,1.820245 23.04146,3.632435 4.16434,1.332432 7.34537,3.273452 7.47919,3.353551 6.96134,6.922397 7.75971,8.867182 8.27181,11.241563 0.92251,4.277308 0.8439,11.481505 0.0954,15.795461 -0.49036,2.826074 -1.27126,5.234694 -2.32662,7.328091 -1.96148,3.890746 -7.75415,8.390062 -11.88949,9.772501 -4.76259,1.592125 -11.4595,2.888758 -20.05186,3.390526 -4.37568,0.25552 -11.48695,0.22381 -15.87071,0.22381 H 93.421875 a 7.9375,7.9375 45 0 1 -7.9375,-7.9375 V 53.341797 a 7.9375,7.9375 135 0 1 7.9375,-7.9375 z m 0,99.683593 h 19.345705 c 4.38376,0 11.49489,-0.0315 15.8709,0.21884 10.37349,0.59341 18.25843,2.34327 23.73736,4.62769 4.02644,1.67881 6.86414,4.14453 6.97768,4.24331 6.88835,8.40411 8.01932,11.14267 8.69125,14.28308 0.9155,4.2788 0.86854,11.47288 0.15006,15.79234 -0.68304,4.10637 -1.94741,7.64642 -3.80341,10.80373 -2.21552,3.7689 -7.50554,8.76578 -11.4745,10.57268 -5.12599,2.33365 -12.38384,4.08008 -21.96898,4.7005 -4.37385,0.28311 -11.48605,0.24611 -15.86981,0.24611 H 93.421875 a 7.9375,7.9375 45 0 1 -7.9375,-7.9375 v -49.61328 a 7.9375,7.9375 135 0 1 7.9375,-7.9375 z"
           id="path2"
           inkscape:path-effect="#path-effect5"
           inkscape:original-d="m 45.779297,-0.01171875 a 10.001,10.001 0 0 0 -10,10.00000005 V 245.66211 a 10.001,10.001 0 0 0 10,10 h 82.847653 c 26.81983,0 49.23311,-6.2489 65.96289,-19.66406 17.0606,-13.50421 25.89649,-33.70022 25.89649,-57.33985 0,-13.57278 -2.5258,-25.46227 -8.35742,-35.18164 -5.53438,-9.22395 -13.44932,-16.57956 -23.10547,-21.54883 -1.00164,-0.52772 -2.06129,-0.96602 -3.08789,-1.45507 4.78423,-3.03232 9.04946,-6.65533 12.68164,-10.91016 a 10.001,10.001 0 0 0 0.0762,-0.0898 c 9.27596,-11.131164 13.87109,-25.345565 13.87109,-41.060551 0,-23.88844 -9.53266,-43.53704 -27.80468,-53.892578 C 167.33066,4.3024291 143.53932,-0.01171875 113.11328,-0.01171875 Z m 10,19.99999975 h 57.333983 c 28.49165,0 49.11636,4.477682 61.60547,11.824219 a 10.001,10.001 0 0 0 0.15039,0.08594 c 12.05983,6.816427 17.69531,17.295729 17.69531,36.513672 0,11.98626 -3.09898,20.86292 -9.20117,28.207032 -3.72242,4.346386 -8.63352,7.724386 -14.76562,10.300776 8.93077,-8.69366 13.26953,-21.199735 13.26953,-35.207026 0,-15.316896 -6.50672,-28.974082 -18.66016,-36.257813 C 151.37309,28.012734 135.32424,25.404297 114.43359,25.404297 H 75.484375 a 10.001,10.001 0 0 0 -10,10 v 74.927733 a 10.001,10.001 0 0 0 10,10 h 43.570315 c 11.50223,0 21.38149,-0.83612 29.79687,-3.01953 a 10.001,10.001 0 0 0 -1.17773,3.25195 v 1.65039 a 10.001,10.001 0 0 0 2.11914,5.73438 c -8.42343,-2.01172 -18.11064,-2.86133 -29.08789,-2.86133 H 75.484375 a 10.001,10.001 0 0 0 -10,10 v 85.48828 a 10.001,10.001 0 0 0 10,10 h 47.531255 c 22.20297,0 39.47287,-3.97288 50.64062,-15.14062 10.05294,-10.05294 15.14258,-23.82935 15.14258,-39.08789 0,-14.58971 -5.63404,-27.87043 -16.18946,-37.13477 -2.09843,-1.92149 -4.45521,-3.54329 -6.9414,-5.02148 5.07887,1.40149 9.79032,3.18827 14.07422,5.44921 a 10.001,10.001 0 0 0 0.0996,0.0508 c 6.60609,3.39231 11.43801,7.90971 15.13672,14.07421 3.41046,5.68411 5.50781,13.81979 5.50781,24.89258 0,19.04243 -5.90504,31.84693 -18.32031,41.66797 a 10.001,10.001 0 0 0 -0.0566,0.0449 c -12.31237,9.88721 -29.71292,15.29102 -53.48242,15.29102 H 55.779297 Z m 29.705078,25.416016 h 28.949215 c 19.07215,0 32.01858,3.098002 38.21485,7.027344 a 10.001,10.001 0 0 0 0.24023,0.148437 c 6.27108,3.732785 8.97852,8.522755 8.97852,19.132813 0,10.752445 -2.73398,16.9895 -7.76758,21.470703 -4.12762,3.482056 -15.90914,7.148436 -35.04492,7.148436 H 85.484375 Z m 0,99.683593 h 35.220705 c 20.60648,0 33.26646,4.13821 38.44531,8.9082 a 10.001,10.001 0 0 0 0.20313,0.18164 c 6.53208,5.69464 9.44531,12.16856 9.44531,22.16993 0,11.14743 -3.05246,18.71457 -9.28321,24.94531 -5.11594,5.11594 -16.89351,9.2832 -36.49999,9.2832 H 85.484375 Z" />
        <path
           style="color:#000000;display:inline;fill:#000000;stroke-linecap:round;stroke-linejoin:round;stroke-miterlimit:0;-inkscape-stroke:none;paint-order:stroke markers fill"
           d="m 113.11376,9.989222 q 44.23005,0 66.67515,13.203001 22.77517,12.872925 22.77517,45.220276 0,20.794726 -11.55262,34.657881 -11.55263,13.53307 -33.33758,17.49397 v 1.65038 q 14.85338,2.31052 26.73608,8.58195 12.21277,6.27142 19.14435,17.82405 6.93157,11.55262 6.93157,30.03682 0,32.01728 -22.11502,49.51126 -21.78495,17.49397 -59.74358,17.49397 H 45.778453 V 9.989222 Z m 5.94135,100.342808 q 30.3669,0 41.58945,-9.57218 11.22255,-9.90225 11.22255,-29.046601 0,-19.474425 -13.86315,-27.726301 -13.53308,-8.58195 -43.5699,-8.58195 H 75.485204 v 74.927032 z m -43.569906,24.75562 v 85.48943 h 47.530806 q 31.35712,0 43.5699,-12.21278 12.21277,-12.21277 12.21277,-32.01727 0,-18.4842 -12.87292,-29.70675 -12.54285,-11.55263 -45.22028,-11.55263 z"
           id="path3" />
      </g>
    </g>
  </g>
</svg>
