<?xml version="1.0" encoding="UTF-8" standalone="no"?>
<!-- Created with Inkscape (http://www.inkscape.org/) -->

<svg
   width="256"
   height="256"
   viewBox="0 0 256 256"
   version="1.1"
   id="svg1"
   inkscape:export-filename="palette-symbolic.svg"
   inkscape:export-xdpi="96"
   inkscape:export-ydpi="96"
   sodipodi:docname="palette-symbolic.svg"
   inkscape:version="1.3.2 (091e20ef0f, 2023-11-25, custom)"
   xmlns:inkscape="http://www.inkscape.org/namespaces/inkscape"
   xmlns:sodipodi="http://sodipodi.sourceforge.net/DTD/sodipodi-0.dtd"
   xmlns="http://www.w3.org/2000/svg"
   xmlns:svg="http://www.w3.org/2000/svg">
  <sodipodi:namedview
     id="namedview1"
     pagecolor="#7f7f7f"
     bordercolor="#000000"
     borderopacity="0.25"
     inkscape:showpageshadow="2"
     inkscape:pageopacity="0.0"
     inkscape:pagecheckerboard="0"
     inkscape:deskcolor="#d1d1d1"
     inkscape:document-units="mm"
     showgrid="true"
     inkscape:zoom="2.2925728"
     inkscape:cx="210.89843"
     inkscape:cy="116.02685"
     inkscape:window-width="1920"
     inkscape:window-height="1080"
     inkscape:window-x="0"
     inkscape:window-y="0"
     inkscape:window-maximized="0"
     inkscape:current-layer="layer1">
    <inkscape:grid
       id="grid1"
       units="px"
       originx="0"
       originy="0"
       spacingx="0.26458333"
       spacingy="0.26458333"
       empcolor="#0099e5"
       empopacity="0.30196078"
       color="#0099e5"
       opacity="0.14901961"
       empspacing="5"
       dotted="false"
       gridanglex="30"
       gridanglez="30"
       visible="true" />
  </sodipodi:namedview>
  <defs
     id="defs1" />
  <g
     inkscape:label="Layer 1"
     inkscape:groupmode="layer"
     id="layer1">
    <g
       id="g1">
      <path
         id="path1"
         style="fill:#000000;fill-opacity:1;stroke:none;stroke-width:10;stroke-linejoin:round;stroke-dasharray:none;stroke-opacity:1;paint-order:fill markers stroke"
         d="M 121.80469,9.03125 C 59.993881,9.0316618 9.8860973,60.28227 9.8867188,123.5 10.103786,213.47226 70.247506,261.27706 109.52734,240.76562 c 45.3953,-23.7049 -24.593603,-89.89988 111.42969,-94.65624 31.72538,-1.10934 26.03079,-54.54482 -8.43945,-94.361333 -23.02918,22.962122 -62.92724,62.851983 -90.1875,91.306643 l -9.24414,9.97656 c -5.54915,9.42384 1.39914,16.30313 -11.00586,32.41406 -5.642545,7.15595 -13.98834,5.59126 -22.740236,19.20313 C 44.886961,172.39377 77.015479,135.72075 95.25,137.03125 l 0.002,-0.002 9.83594,-9.29297 95.36523,-88.197268 C 180.5832,21.817566 154.0497,9.0413579 121.80469,9.03125 Z m 31.78125,16.429688 A 15.850463,15.850463 0 0 1 169.43555,41.310547 15.850463,15.850463 0 0 1 153.58594,57.162109 15.850463,15.850463 0 0 1 137.73633,41.310547 15.850463,15.850463 0 0 1 153.58594,25.460938 Z M 87.699219,33.994141 A 15.850463,15.850463 0 0 1 103.54883,49.845703 15.850463,15.850463 0 0 1 87.699219,65.695312 15.850463,15.850463 0 0 1 71.847656,49.845703 15.850463,15.850463 0 0 1 87.699219,33.994141 Z M 47.910156,87.103516 A 15.850463,15.850463 0 0 1 63.761719,102.95312 15.850463,15.850463 0 0 1 47.910156,118.80469 15.850463,15.850463 0 0 1 32.060547,102.95312 15.850463,15.850463 0 0 1 47.910156,87.103516 Z m -4.115234,61.191404 a 15.850463,15.850463 0 0 1 15.851562,15.85156 15.850463,15.850463 0 0 1 -15.851562,15.84961 15.850463,15.850463 0 0 1 -15.84961,-15.84961 15.850463,15.850463 0 0 1 15.84961,-15.85156 z" />
      <path
         id="rect4"
         style="fill:none;fill-opacity:0.00805437;stroke:#000000;stroke-width:10;stroke-linecap:round;stroke-linejoin:round;stroke-dasharray:none;stroke-opacity:1;paint-order:fill markers stroke"
         d="m 105.08874,127.73714 17.2422,15.318 -9.24488,9.97568 -17.836119,-16.00055 z M 222.27567,19.357834 c 19.37497,-17.495985 40.14336,-21.6546886 11.72992,10.930641 0,0 -75.07765,74.566185 -111.67465,112.766665 -3.13633,3.2737 -6.94451,6.06905 -9.24489,9.97569 -5.54915,9.42385 1.39941,16.30373 -11.0056,32.41468 -5.642549,7.15595 -13.988873,5.59034 -22.740778,19.20222 -34.452917,-32.2547 -2.32428,-68.92795 15.910259,-67.61745 l 9.838809,-9.29314 z"
         sodipodi:nodetypes="cccccccasccccc" />
    </g>
  </g>
</svg>
