<?xml version="1.0" encoding="UTF-8" standalone="no"?>
<!-- Created with Inkscape (http://www.inkscape.org/) -->

<svg
   width="256"
   height="256"
   viewBox="0 0 256 256"
   version="1.1"
   id="svg1"
   inkscape:version="1.3.2 (091e20ef0f, 2023-11-25, custom)"
   sodipodi:docname="warning-symbolic.svg"
   inkscape:export-filename="../../../../../lixo.svg"
   inkscape:export-xdpi="96"
   inkscape:export-ydpi="96"
   xmlns:inkscape="http://www.inkscape.org/namespaces/inkscape"
   xmlns:sodipodi="http://sodipodi.sourceforge.net/DTD/sodipodi-0.dtd"
   xmlns="http://www.w3.org/2000/svg"
   xmlns:svg="http://www.w3.org/2000/svg">
  <sodipodi:namedview
     id="namedview1"
     pagecolor="#808080"
     bordercolor="#000000"
     borderopacity="0.24705882"
     inkscape:showpageshadow="false"
     inkscape:pageopacity="0.0"
     inkscape:pagecheckerboard="0"
     inkscape:deskcolor="#d1d1d1"
     inkscape:document-units="mm"
     showgrid="true"
     inkscape:zoom="2"
     inkscape:cx="83.25"
     inkscape:cy="173"
     inkscape:window-width="1920"
     inkscape:window-height="1080"
     inkscape:window-x="0"
     inkscape:window-y="0"
     inkscape:window-maximized="0"
     inkscape:current-layer="layer1"
     borderlayer="true"
     showborder="false">
    <inkscape:grid
       id="grid1"
       units="px"
       originx="0"
       originy="0"
       spacingx="1"
       spacingy="1"
       empcolor="#0099e5"
       empopacity="0.30196078"
       color="#0099e5"
       opacity="0.14901961"
       empspacing="5"
       dotted="false"
       gridanglex="30"
       gridanglez="30"
       visible="true" />
  </sodipodi:namedview>
  <defs
     id="defs1">
    <inkscape:path-effect
       effect="fillet_chamfer"
       id="path-effect20"
       is_visible="true"
       lpeversion="1"
       nodesatellites_param="F,0,0,1,0,10.583333,0,1 @ F,0,0,1,0,10.583333,0,1 @ F,0,0,1,0,10.583333,0,1"
       radius="40"
       unit="px"
       method="auto"
       mode="F"
       chamfer_steps="1"
       flexible="false"
       use_knot_distance="true"
       apply_no_radius="true"
       apply_with_radius="true"
       only_selected="false"
       hide_knots="false" />
    <inkscape:path-effect
       effect="fillet_chamfer"
       id="path-effect19"
       is_visible="true"
       lpeversion="1"
       nodesatellites_param="F,0,0,1,0,33.072917,0,1 @ F,0,0,1,0,33.072917,0,1 @ F,0,0,1,0,33.072917,0,1"
       radius="125"
       unit="px"
       method="auto"
       mode="F"
       chamfer_steps="1"
       flexible="false"
       use_knot_distance="true"
       apply_no_radius="true"
       apply_with_radius="true"
       only_selected="false"
       hide_knots="false" />
    <inkscape:path-effect
       effect="fillet_chamfer"
       id="path-effect12"
       is_visible="true"
       lpeversion="1"
       nodesatellites_param="F,0,0,1,0,33.072917,0,1 @ F,0,0,1,0,33.072917,0,1 @ F,0,0,1,0,33.072917,0,1"
       radius="125"
       unit="px"
       method="auto"
       mode="F"
       chamfer_steps="1"
       flexible="false"
       use_knot_distance="true"
       apply_no_radius="true"
       apply_with_radius="true"
       only_selected="false"
       hide_knots="false" />
    <inkscape:path-effect
       effect="fillet_chamfer"
       id="path-effect11"
       is_visible="true"
       lpeversion="1"
       nodesatellites_param="F,0,0,1,0,0,0,1 @ F,0,0,1,0,0,0,1 @ F,0,0,1,0,0,0,1"
       radius="0"
       unit="px"
       method="auto"
       mode="F"
       chamfer_steps="1"
       flexible="false"
       use_knot_distance="true"
       apply_no_radius="true"
       apply_with_radius="true"
       only_selected="false"
       hide_knots="false" />
    <inkscape:path-effect
       effect="fillet_chamfer"
       id="path-effect10"
       is_visible="true"
       lpeversion="1"
       nodesatellites_param="F,0,0,1,0,0,0,1 @ F,0,0,1,0,0,0,1 @ F,0,0,1,0,0,0,1"
       radius="0"
       unit="px"
       method="auto"
       mode="F"
       chamfer_steps="1"
       flexible="false"
       use_knot_distance="true"
       apply_no_radius="true"
       apply_with_radius="true"
       only_selected="false"
       hide_knots="false" />
    <inkscape:path-effect
       effect="fillet_chamfer"
       id="path-effect9"
       is_visible="true"
       lpeversion="1"
       nodesatellites_param="F,0,0,1,0,0,0,1 @ F,0,0,1,0,0,0,1 @ F,0,0,1,0,0,0,1"
       radius="0"
       unit="px"
       method="auto"
       mode="F"
       chamfer_steps="1"
       flexible="false"
       use_knot_distance="true"
       apply_no_radius="true"
       apply_with_radius="true"
       only_selected="false"
       hide_knots="false" />
    <inkscape:path-effect
       effect="fillet_chamfer"
       id="path-effect8"
       is_visible="true"
       lpeversion="1"
       nodesatellites_param="F,0,0,1,0,0,0,1 @ F,0,0,1,0,0,0,1 @ F,0,0,1,0,0,0,1"
       radius="0"
       unit="px"
       method="auto"
       mode="F"
       chamfer_steps="1"
       flexible="false"
       use_knot_distance="true"
       apply_no_radius="true"
       apply_with_radius="true"
       only_selected="false"
       hide_knots="false" />
    <inkscape:path-effect
       effect="fillet_chamfer"
       id="path-effect7"
       is_visible="true"
       lpeversion="1"
       nodesatellites_param="F,0,0,1,0,0,0,1 @ F,0,0,1,0,0,0,1 @ F,0,0,1,0,0,0,1"
       radius="0"
       unit="px"
       method="auto"
       mode="F"
       chamfer_steps="1"
       flexible="false"
       use_knot_distance="true"
       apply_no_radius="true"
       apply_with_radius="true"
       only_selected="false"
       hide_knots="false" />
    <inkscape:path-effect
       effect="fillet_chamfer"
       id="path-effect5"
       is_visible="true"
       lpeversion="1"
       nodesatellites_param="F,0,0,1,0,19.064707,0,1 @ F,0,0,1,0,30.703824,0,1 @ F,0,0,1,0,18.648015,0,1"
       radius="0"
       unit="px"
       method="auto"
       mode="F"
       chamfer_steps="1"
       flexible="false"
       use_knot_distance="true"
       apply_no_radius="true"
       apply_with_radius="true"
       only_selected="false"
       hide_knots="false" />
    <inkscape:path-effect
       effect="fillet_chamfer"
       id="path-effect4"
       is_visible="true"
       lpeversion="1"
       nodesatellites_param="F,0,0,1,0,6.2402253,0,1 @ F,0,0,1,0,6.3121132,0,1 @ F,0,0,1,0,4.9158389,0,1 @ F,0,0,1,0,5.159131,0,1"
       radius="0"
       unit="px"
       method="auto"
       mode="F"
       chamfer_steps="1"
       flexible="false"
       use_knot_distance="true"
       apply_no_radius="true"
       apply_with_radius="true"
       only_selected="false"
       hide_knots="false" />
    <inkscape:path-effect
       effect="fillet_chamfer"
       id="path-effect3"
       nodesatellites_param="F,0,0,1,0,0,0,1 @ F,0,0,1,0,0,0,1"
       is_visible="true"
       lpeversion="1"
       radius="0"
       unit="px"
       method="auto"
       mode="F"
       chamfer_steps="1"
       flexible="false"
       use_knot_distance="true"
       apply_no_radius="true"
       apply_with_radius="true"
       only_selected="false"
       hide_knots="false" />
    <inkscape:path-effect
       effect="fillet_chamfer"
       id="path-effect2"
       is_visible="true"
       lpeversion="1"
       nodesatellites_param="F,0,0,1,0,19.064707,0,1 @ F,0,0,1,0,30.703824,0,1 @ F,0,0,1,0,18.648015,0,1"
       radius="0"
       unit="px"
       method="auto"
       mode="F"
       chamfer_steps="1"
       flexible="false"
       use_knot_distance="true"
       apply_no_radius="true"
       apply_with_radius="true"
       only_selected="false"
       hide_knots="false" />
  </defs>
  <g
     inkscape:label="Layer 1"
     inkscape:groupmode="layer"
     id="layer1">
    <path
       id="path2"
       style="display:none;fill:none;fill-opacity:1;stroke:#ffffff;stroke-width:5;stroke-linejoin:round;stroke-dasharray:none;stroke-opacity:0.999924;paint-order:fill markers stroke"
       d="M 152.91331,222.86816 A 24.913308,24.913308 0 0 1 128,247.78147 24.913308,24.913308 0 0 1 103.08669,222.86816 24.913308,24.913308 0 0 1 128,197.95485 a 24.913308,24.913308 0 0 1 24.91331,24.91331 z" />
    <path
       id="rect3"
       style="display:none;fill:none;fill-opacity:1;stroke:#ffffff;stroke-width:4.61873;stroke-linejoin:round;stroke-dasharray:none;stroke-opacity:0.999924;paint-order:fill markers stroke"
       d="m 119.14873,38.798534 h 17.63067 a 5.9970352,5.9970352 46.466283 0 1 5.98918,6.303847 L 135.1898,193.04545 a 5.174112,5.174112 136.46628 0 1 -5.16734,4.9094 h -4.81922 a 5.3956179,5.3956179 43.716461 0 1 -5.3902,-5.15395 L 113.18799,45.032497 a 5.9667197,5.9667197 133.71646 0 1 5.96074,-6.233963 z"
       sodipodi:nodetypes="ccccc"
       transform="matrix(1.082549,0,0,1.082549,-10.543783,-9.7718797)"
       inkscape:original-d="m 112.9085,38.798534 h 30.18301 L 134.9383,197.95485 h -14.89419 z"
       inkscape:path-effect="#path-effect4" />
    <path
       id="rect7"
       style="fill:#000000;fill-opacity:1;stroke:none;stroke-width:2.54668;stroke-linecap:round;stroke-linejoin:round;stroke-opacity:0.999924;paint-order:fill markers stroke"
       d="M 127.99875 20.500814 A 16.542668 16.542668 0 0 0 113.20411 29.643266 L 14.797264 226.35836 A 20.441329 20.441329 0 0 0 33.073205 255.94405 L 222.92788 255.99246 A 20.432181 20.432181 0 0 0 241.20561 226.41931 L 142.79339 29.643266 A 16.542668 16.542668 0 0 0 127.99875 20.500814 z M 128.00054 42.763582 C 134.46668 42.763906 140.93131 46.038328 144.20598 52.587236 L 224.71334 213.5912 C 231.71274 227.58896 221.30378 244.43581 205.65581 244.43174 L 50.343476 244.3923 C 34.693496 244.38839 24.28605 227.53989 31.287738 213.541 L 111.79151 52.585443 C 115.06686 46.036864 121.5344 42.763258 128.00054 42.763582 z M 127.99875 51.554677 C 124.85549 51.554519 121.71305 53.267389 120 56.692376 L 39.496225 217.64794 C 35.375103 225.88753 41.133844 235.21168 50.345269 235.21399 L 205.6576 235.25164 C 214.86579 235.25394 220.62548 225.93702 216.50665 217.69992 L 135.99929 56.692376 C 134.28659 53.267218 131.14198 51.554834 127.99875 51.554677 z M 125.78125 85.921334 L 130.22162 85.921334 C 138.06094 85.921335 144.25692 92.940778 143.28457 100.71956 L 133.76029 176.91204 C 133.40091 179.78696 130.50215 181.99597 128.00054 181.99596 C 125.49893 181.99596 122.60196 179.78696 122.24259 176.91204 L 112.7183 100.71956 C 111.74596 92.940779 117.94194 85.921335 125.78125 85.921334 z M 125.78125 95.099639 C 123.30479 95.099639 121.51953 97.123899 121.8267 99.581233 L 128.00054 148.97736 L 134.17618 99.581233 C 134.48334 97.123899 132.69808 95.099639 130.22162 95.099639 L 125.78125 95.099639 z M 128.00054 186.69088 C 137.1236 186.69088 144.61829 194.18557 144.61829 203.30863 C 144.61829 212.43169 137.1236 219.92459 128.00054 219.92459 C 118.87748 219.92459 111.38458 212.43169 111.38458 203.30863 C 111.38458 194.18557 118.87748 186.69088 128.00054 186.69088 z M 128.00054 195.86918 C 123.83779 195.86918 120.56289 199.14587 120.56289 203.30863 C 120.56289 207.47137 123.83779 210.74628 128.00054 210.74628 C 132.16329 210.74628 135.43999 207.47137 135.43999 203.30863 C 135.43999 199.14587 132.16329 195.86918 128.00054 195.86918 z "
       transform="matrix(1.0895258,0,0,1.0895258,-11.459891,-22.336166)" />
  </g>
</svg>
